<?xml version="1.0" encoding="utf-8"?>
<!-- Generator: Adobe Illustrator 22.1.0, SVG Export Plug-In . SVG Version: 6.00 Build 0)  -->
<svg version="1.1" id="Слой_1" xmlns="http://www.w3.org/2000/svg" xmlns:xlink="http://www.w3.org/1999/xlink" x="0px" y="0px"
	 width="496px" height="496px" viewBox="0 0 496 496" style="enable-background:new 0 0 496 496;" xml:space="preserve">
<style type="text/css">
	.st0{fill:#FFFFFF;}
</style>
<path class="st0" d="M496,248C496,111,385,0,248,0S0,111,0,248s111,248,248,248S496,385,496,248z M48,248c0-110.5,89.5-200,200-200
	s200,89.5,200,200s-89.5,200-200,200S48,358.5,48,248z M120,268v-40c0-6.6,5.4-12,12-12h116v-67c0-10.7,12.9-16,20.5-8.5l99,99
	c4.7,4.7,4.7,12.3,0,17l-99,99c-7.6,7.6-20.5,2.2-20.5-8.5v-67H132C125.4,280,120,274.6,120,268z"/>
</svg>
