<?xml version="1.0" encoding="utf-8"?>
<!-- Generator: Adobe Illustrator 22.1.0, SVG Export Plug-In . SVG Version: 6.00 Build 0)  -->
<svg version="1.1" id="Layer_1" xmlns="http://www.w3.org/2000/svg" xmlns:xlink="http://www.w3.org/1999/xlink" x="0px" y="0px"
	 width="938px" height="251.8px" viewBox="0 0 938 251.8" style="enable-background:new 0 0 938 251.8;" xml:space="preserve">
<style type="text/css">
	.st0{opacity:0.6;fill:#FFFFFF;enable-background:new    ;}
	.st1{fill:#FFFFFF;}
</style>
<g>
	<path class="st0" d="M547,169.7c-8.4,20.8-21.9,39.2-39.3,52.9c-12.1,9.5-25.1,16.4-38.7,20.7c-13.6-4.2-26.6-11.1-38.7-20.7
		c-17.4-13.7-30.9-32.1-39.3-52.9h-9c8.9,23.4,23.7,44.2,43.2,59.5c13.3,10.5,27.7,18,42.7,22.5c0.4,0.1,0.8,0.2,1.2,0.2
		c0.4,0,0.8-0.1,1.2-0.2c15-4.5,29.4-12,42.7-22.5c19.4-15.3,34.3-36,43.2-59.5L547,169.7L547,169.7z M561.4,33.5
		c-61.3,0-88.7-31.6-89.1-32.1c-1.6-1.9-4.8-1.9-6.4,0c-0.3,0.3-27.5,32.1-89.1,32.1c-2.3,0-4.2,1.9-4.2,4.2v44h8.4V41.9
		c51.4-1.1,79.2-23.1,88.2-31.7c9,8.6,36.8,30.5,88.2,31.7v39.8h8.4v-44C565.6,35.4,563.7,33.5,561.4,33.5z"/>
	<path class="st0" d="M519.3,169.7c-6.7,12.9-15.9,24.2-27.2,33.1c-7.4,5.8-15.1,10.4-23.1,13.7c-8-3.3-15.8-7.9-23.1-13.7
		c-11.3-8.9-20.5-20.2-27.2-33.1h-9.4c7.4,15.5,18.1,29.2,31.4,39.7c8.5,6.7,17.5,11.9,26.8,15.5c0.5,0.2,1,0.3,1.5,0.3
		s1-0.1,1.5-0.3c9.3-3.6,18.3-8.9,26.8-15.5c13.3-10.5,24-24.2,31.4-39.7L519.3,169.7L519.3,169.7z M536.7,57.2
		c-31.1-4-52.7-15-65.3-23.6c-1.4-1-3.3-1-4.7,0c-12.7,8.6-34.3,19.7-65.3,23.6c-2.1,0.3-3.7,2-3.7,4.2v20.3h8.4V65
		c29-4.3,49.8-14.5,63-23c13.1,8.5,34,18.7,63,23v16.7h8.4V61.3C540.4,59.2,538.8,57.4,536.7,57.2z"/>
</g>
<g>
	<path class="st1" d="M43.9,148.9v8.7H0V94.3h41.8v8.7H11v17.2h28v8.5H11v20.2H43.9z"/>
	<path class="st1" d="M106,154.7c-4.9,2.7-11.1,4-18.5,4c-10.5,0-18.6-3.1-24.5-9.1s-8.7-13.8-8.7-23.3c0-9.4,3.2-17.3,9.4-23.6
		c6.3-6.4,14.4-9.6,24.2-9.6c6.6,0,12,1,15.9,2.8v9.5c-4.5-2.1-9.3-3.2-14.5-3.2c-6.7,0-12.4,2.2-17,6.5c-4.5,4.3-6.8,10.2-6.8,17.6
		c0,14.5,8.7,23.3,23.2,23.3c5.9,0,11.6-1.5,17.3-4.5V154.7z"/>
	<path class="st1" d="M124.9,149.5c-6-6.2-9-14-9-23.5c0-9.2,3.3-17,9.7-23.3c6.4-6.3,14.4-9.5,23.9-9.5c9.7,0,17.7,3.2,23.9,9.5
		c6.2,6.2,9.4,14,9.4,23.3s-3.2,17.2-9.4,23.4s-14.3,9.3-24,9.3C139.1,158.7,130.9,155.7,124.9,149.5z M133.1,143
		c4.1,4.5,9.5,6.7,16.3,6.7c6.6,0,12-2.3,16.1-6.8s6.2-10.2,6.2-16.9c0-6.6-2.1-12.2-6.2-16.7c-4.1-4.5-9.5-6.8-16.1-6.8
		s-12,2.3-16.2,6.8c-4.1,4.5-6.2,10.1-6.2,16.7C127,132.8,129,138.5,133.1,143z"/>
	<path class="st1" d="M230,144.7h-2l-20.3-25.4c-0.1,0.1-0.2,0.2-0.3,0.2v38.2h-10.6V93.6h2.1l30,37.8c1.7-2.4,6.7-8.7,15.1-19.1
		c8.4-10.4,13.3-16.6,14.9-18.7h1.9v64.1h-10.6v-19.2c0.1-8.4,0.1-14.8,0.1-19.4c-0.1-0.1-0.3-0.2-0.4-0.2L230,144.7z"/>
	<path class="st1" d="M310.7,144.7h-2l-20.3-25.4c-0.1,0.1-0.2,0.2-0.3,0.2v38.2h-10.6V93.6h2.1l30,37.8c1.7-2.4,6.7-8.7,15.1-19.1
		s13.3-16.6,14.9-18.7h1.9v64.1H331v-19.2c0.1-8.4,0.1-14.8,0.1-19.4c-0.1-0.1-0.3-0.2-0.4-0.2L310.7,144.7z"/>
	<path class="st1" d="M402,148.9v8.7h-43.9V94.3h41.8v8.7h-30.7v17.2h27.9v8.5h-27.9v20.2H402z"/>
	<path class="st1" d="M438.8,94.4c6.1,0,11.4,1.8,15.9,5.5c4.5,3.6,6.8,8.6,6.8,14.9c0,8.2-5.1,15.7-15.2,19.3l18.9,23.6h-13
		c-1.2-1.5-4.6-6-10.1-13.4c-5.5-7.5-8.7-11.9-9.9-13.3v-1.3c11.8-0.8,18.2-7,18.2-14c0-7.8-5.4-12.6-13.5-12.6h-11.4v54.7h-11V94.4
		H438.8z"/>
	<path class="st1" d="M525.8,154.7c-4.9,2.7-11.1,4-18.5,4c-10.5,0-18.6-3.1-24.5-9.1s-8.7-13.8-8.7-23.3c0-9.4,3.2-17.3,9.4-23.6
		c6.3-6.4,14.4-9.6,24.2-9.6c6.6,0,12,1,15.9,2.8v9.5c-4.5-2.1-9.3-3.2-14.5-3.2c-6.7,0-12.4,2.2-17,6.5c-4.5,4.3-6.8,10.2-6.8,17.6
		c0,14.5,8.7,23.3,23.2,23.3c5.9,0,11.6-1.5,17.3-4.5V154.7z"/>
	<path class="st1" d="M581.9,148.9v8.7H538V94.3h41.8v8.7h-30.7v17.2H577v8.5h-27.9v20.2H581.9z"/>
	<path class="st1" d="M669.5,154.7c-4.9,2.7-11.1,4-18.5,4c-10.5,0-18.6-3.1-24.5-9.1s-8.7-13.8-8.7-23.3c0-9.4,3.2-17.3,9.4-23.6
		c6.3-6.4,14.4-9.6,24.2-9.6c6.6,0,12,1,15.9,2.8v9.5c-4.5-2.1-9.3-3.2-14.5-3.2c-6.7,0-12.4,2.2-17,6.5c-4.5,4.3-6.8,10.2-6.8,17.6
		c0,14.5,8.7,23.3,23.2,23.3c5.9,0,11.6-1.5,17.3-4.5L669.5,154.7L669.5,154.7z"/>
	<path class="st1" d="M731.3,157.7h-10.9V129h-29.5v28.7h-11V94.3h11v25.8h29.5V94.3h10.9V157.7z"/>
	<path class="st1" d="M790.5,157.7l-5.1-12.1h-27.7l-5,12.1H742l29-64.2h2l28.6,64.2H790.5z M771.4,112.8l-10.6,25h21.5l-10.6-25
		H771.4z"/>
	<path class="st1" d="M844.2,144.7h-2l-20.3-25.4c-0.1,0.1-0.2,0.2-0.3,0.2v38.2H811V93.6h2.1l30,37.8c1.7-2.4,6.7-8.7,15.1-19.1
		s13.3-16.6,14.9-18.7h1.9v64.1h-10.6v-19.2c0.1-8.4,0.1-14.8,0.1-19.4c-0.1-0.1-0.3-0.2-0.4-0.2L844.2,144.7z"/>
	<path class="st1" d="M891.6,157.7V94.4h23c7.4,0,13.2,2.1,17.2,6.2c4.1,4.1,6.1,9,6.1,14.8c0,6.3-2.2,11.5-6.5,15.6
		c-4.3,3.9-9.9,6-16.5,6h-12.2v20.7H891.6z M902.7,102.9v25.5H913c4.7,0,8.3-1.2,10.5-3.7c2.2-2.6,3.4-5.6,3.4-8.9
		c0-7.2-4.8-12.9-14.4-12.9C912.5,102.9,902.7,102.9,902.7,102.9z"/>
</g>
</svg>
