<?xml version="1.0" encoding="utf-8"?>
<!-- Generator: Adobe Illustrator 22.1.0, SVG Export Plug-In . SVG Version: 6.00 Build 0)  -->
<svg version="1.1" id="Слой_1" xmlns="http://www.w3.org/2000/svg" xmlns:xlink="http://www.w3.org/1999/xlink" x="0px" y="0px"
	 width="29.2px" height="81.2px" viewBox="0 0 29.2 81.2" style="enable-background:new 0 0 29.2 81.2;" xml:space="preserve">
<style type="text/css">
	.st0{fill:#1D1D1B;}
</style>
<g>
	<path class="st0" d="M29.1,76.8l-3.9-15.2c-0.3-1.1-1.5-1.7-2.7-1.2c-1.2,0.5-1.9,1.7-1.6,2.9l2.5,9.7c-6.4-4.6-10.9-11.7-11-11.8
		c-13-18.8-9.9-44.4,6.9-57.2c1-0.8,1.3-2.2,0.7-3.1C20,0.7,20,0.6,19.9,0.5c-0.7-0.7-1.9-0.7-2.8,0C-1.8,14.9-5.6,43.3,8.7,63.9
		c0.2,0.3,4.6,7.2,11.1,12.2l-8.6,0.7C10,76.8,9,77.9,8.9,79.1c-0.1,1.2,0.9,2.1,2.1,2l15.9-1.3c0,0,0.1,0,0.1,0
		c0.2,0,0.5-0.1,0.7-0.2c0,0,0,0,0.1,0c0.2-0.1,0.4-0.2,0.6-0.4c0,0,0-0.1,0.1-0.1c0.1-0.1,0.1-0.1,0.1-0.2c0.1-0.2,0.3-0.3,0.3-0.5
		c0-0.1,0.1-0.1,0.1-0.2c0.1-0.2,0.2-0.5,0.2-0.8c0,0,0,0,0,0l0,0C29.2,77.3,29.2,77,29.1,76.8z"/>
</g>
</svg>
