<?xml version="1.0" encoding="utf-8"?>
<!-- Generator: Adobe Illustrator 22.1.0, SVG Export Plug-In . SVG Version: 6.00 Build 0)  -->
<svg version="1.1" id="Capa_1" xmlns="http://www.w3.org/2000/svg" xmlns:xlink="http://www.w3.org/1999/xlink" x="0px" y="0px"
	 width="330px" height="330px" viewBox="0 0 330 330" style="enable-background:new 0 0 330 330;" xml:space="preserve">
<path d="M325.6,304.4L223.3,202.1c16.7-21.3,26.7-48,26.7-77.1C250,56.1,193.9,0,125,0C56.1,0,0,56.1,0,125c0,68.9,56.1,125,125,125
	c29.1,0,55.9-10,77.1-26.7l102.3,102.3c2.9,2.9,6.8,4.4,10.6,4.4s7.7-1.5,10.6-4.4C331.5,319.7,331.5,310.3,325.6,304.4z M30,125
	c0-52.4,42.6-95,95-95c52.4,0,95,42.6,95,95s-42.6,95-95,95C72.6,220,30,177.4,30,125z"/>
</svg>
