<?xml version="1.0" encoding="utf-8"?>
<!-- Generator: Adobe Illustrator 22.1.0, SVG Export Plug-In . SVG Version: 6.00 Build 0)  -->
<svg version="1.1" id="Слой_1" xmlns="http://www.w3.org/2000/svg" xmlns:xlink="http://www.w3.org/1999/xlink" x="0px" y="0px"
	 width="682px" height="682px" viewBox="0 0 682 682" style="enable-background:new 0 0 682 682;" xml:space="preserve">
<path d="M533.9,21H137.6c-22.4,0-40.5,18.1-40.5,40.5v18h477.2v-18C574.4,39.1,556.3,21,533.9,21z"/>
<path d="M97.2,619.9c0,22.3,18.1,40.5,40.5,40.5h396.3c22.4,0,40.5-18.1,40.5-40.5v-60.6H97.2L97.2,619.9z M333.8,588.6
	c11,0,19.9,8.9,19.9,19.9s-8.9,19.9-19.9,19.9c-11,0-19.9-8.9-19.9-19.9S322.9,588.6,333.8,588.6z"/>
<path d="M97.2,521.2h477.2V117.5H97.2L97.2,521.2z M503.9,490.4h-86c-10.5,0-19-8.5-19-19c0-10.5,8.5-19,19-19h86
	c10.5,0,19,8.5,19,19C523,481.9,514.4,490.4,503.9,490.4z M332.7,149.6h171.2c10.5,0,19,8.5,19,19s-8.5,19-19,19H332.7
	c-10.5,0-19-8.5-19-19S322.2,149.6,332.7,149.6z M332.7,225.3h171.2c10.5,0,19,8.5,19,19c0,10.5-8.5,19-19,19H332.7
	c-10.5,0-19-8.5-19-19C313.6,233.8,322.2,225.3,332.7,225.3z M332.7,300.9h171.2c10.5,0,19,8.5,19,19c0,10.5-8.5,19-19,19H332.7
	c-10.5,0-19-8.5-19-19C313.6,309.5,322.2,300.9,332.7,300.9z M332.7,376.6h171.2c10.5,0,19,8.5,19,19c0,10.5-8.5,19-19,19H332.7
	c-10.5,0-19-8.5-19-19C313.6,385.2,322.2,376.6,332.7,376.6z M141.1,168.6c0-8.3,5.4-15.6,13.3-18.2c7.9-2.5,16.5,0.4,21.3,7.2
	l69.2,97.9v-86.9c0-10.5,8.5-19,19-19s19,8.5,19,19v146.8c0,8.3-5.4,15.6-13.3,18.2c-1.9,0.6-3.8,0.9-5.8,0.9
	c-6.1,0-11.9-2.9-15.6-8l-69.2-97.9v86.9c0,10.5-8.5,19-19,19s-19-8.5-19-19V168.6z M160.1,376.6h107.1c10.5,0,19,8.5,19,19
	c0,10.5-8.5,19-19,19H160.1c-10.5,0-19-8.5-19-19C141.1,385.2,149.6,376.6,160.1,376.6z M160.1,452.3h193c10.5,0,19,8.5,19,19
	c0,10.5-8.5,19-19,19h-193c-10.5,0-19-8.5-19-19C141.1,460.8,149.6,452.3,160.1,452.3z"/>
</svg>
